<svg width="1093" height="336" viewBox="0 0 1093 336" fill="none" xmlns="http://www.w3.org/2000/svg">
<path d="M118.988 15.3055C117.655 16.0752 117.655 17.9998 118.988 18.7696L223.134 78.8967C223.753 79.2539 224.134 79.9142 224.134 80.6287V200.874C224.134 202.414 225.801 203.376 227.134 202.606L252.645 187.878C253.264 187.521 253.645 186.86 253.645 186.146V63.5912C253.645 62.8767 253.264 62.2164 252.645 61.8591L146.5 0.577317C145.881 0.22007 145.119 0.220065 144.5 0.577305L118.988 15.3055Z" fill="url(#paint0_linear_4924_8060)"/>
<path d="M261.489 190.677C261.489 191.391 261.107 192.051 260.488 192.409L156.343 252.531C155.01 253.301 155.01 255.226 156.343 255.996L181.854 270.724C182.473 271.081 183.235 271.081 183.854 270.724L290 209.446C290.619 209.089 291 208.429 291 207.714V85.1551C291 84.4406 290.619 83.7803 290 83.4231L264.488 68.6948C263.155 67.9251 261.489 68.8873 261.489 70.4269V190.677Z" fill="url(#paint1_linear_4924_8060)"/>
<path d="M216.292 85.1551C216.292 84.4406 215.91 83.7803 215.291 83.423L109.146 22.1456C108.527 21.7884 107.765 21.7884 107.146 22.1456L1.00007 83.423C0.381227 83.7803 0 84.4406 0 85.1551V114.611C0 116.151 1.66659 117.113 2.99993 116.344L107.146 56.2206C107.765 55.8634 108.527 55.8634 109.146 56.2206L213.292 116.344C214.625 117.113 216.292 116.151 216.292 114.611V85.1551Z" fill="url(#paint2_linear_4924_8060)"/>
<path d="M74.709 250.845C74.709 251.56 75.0902 252.22 75.7091 252.577L181.855 313.855C182.474 314.212 183.236 314.212 183.855 313.855L290 252.577C290.619 252.22 291.001 251.56 291.001 250.845V221.389C291.001 219.849 289.334 218.887 288.001 219.657L183.855 279.78C183.236 280.137 182.474 280.137 181.855 279.78L77.7089 219.657C76.3756 218.887 74.709 219.849 74.709 221.389V250.845Z" fill="url(#paint3_linear_4924_8060)"/>
<path d="M29.5114 145.323C29.5114 144.609 29.8926 143.949 30.5115 143.591L134.657 83.4688C135.99 82.699 135.99 80.7744 134.657 80.0046L109.146 65.2765C108.527 64.9193 107.765 64.9193 107.146 65.2765L1.00007 126.554C0.381227 126.911 0 127.571 0 128.286V250.845C0 251.56 0.381215 252.22 1.00004 252.577L26.5115 267.305C27.8448 268.075 29.5114 267.113 29.5114 265.573V145.323Z" fill="url(#paint4_linear_4924_8060)"/>
<path d="M66.8659 135.126C66.8659 133.587 65.1993 132.624 63.8659 133.394L38.3545 148.122C37.7357 148.48 37.3545 149.14 37.3545 149.854V272.409C37.3545 273.123 37.7357 273.784 38.3545 274.141L144.5 335.423C145.119 335.78 145.881 335.78 146.5 335.423L172.012 320.695C173.345 319.925 173.345 318 172.012 317.231L67.8659 257.103C67.2471 256.746 66.8659 256.086 66.8659 255.371V135.126Z" fill="url(#paint5_linear_4924_8060)"/>
<path d="M754.812 250.735H731.842C693.559 250.735 679.406 232.869 679.406 203.17V133.564C679.406 103.866 693.559 86 731.842 86H754.812C788.687 86 804.929 102.938 804.929 131.708C804.929 134.724 803.305 136.349 800.288 136.349H783.351C780.567 136.349 778.479 134.724 778.479 131.708C778.479 115.931 767.342 109.898 752.956 109.898H733.699C715.601 109.898 705.856 116.395 705.856 134.028V202.706C705.856 220.572 715.601 226.837 733.699 226.837H752.956C767.342 226.837 778.479 221.268 778.479 205.491C778.479 202.474 780.567 200.85 783.351 200.85H800.288C803.305 200.85 804.929 202.474 804.929 205.491C804.929 234.029 788.687 250.735 754.812 250.735Z" fill="url(#paint6_linear_4924_8060)"/>
<path d="M596.707 250.735H573.737C536.613 250.735 522.46 232.869 522.46 203.17V91.8005C522.46 88.7843 524.084 87.1601 527.1 87.1601H544.27C547.286 87.1601 548.91 88.7843 548.91 91.8005V202.706C548.91 220.34 558.655 226.837 575.593 226.837H594.85C611.788 226.837 621.765 220.34 621.765 202.706V91.8005C621.765 88.7843 623.389 87.1601 626.405 87.1601H643.575C646.591 87.1601 648.215 88.7843 648.215 91.8005V203.17C648.215 232.869 633.83 250.735 596.707 250.735Z" fill="url(#paint7_linear_4924_8060)"/>
<path d="M888.823 250.735H936.619C939.635 250.735 941.259 249.111 941.259 246.094V232.173C941.259 229.157 939.635 227.533 936.619 227.533H890.679C870.261 227.533 860.516 221.268 860.516 202.706V91.8005C860.516 88.7843 858.892 87.1601 855.876 87.1601H838.706C835.69 87.1601 834.066 88.7843 834.066 91.8005V203.17C834.066 232.869 848.219 250.735 888.823 250.735Z" fill="url(#paint8_linear_4924_8060)"/>
<path fill-rule="evenodd" clip-rule="evenodd" d="M977.262 249.575H960.093C957.076 249.575 954.756 249.575 955.452 244.934L974.246 133.564C981.207 91.5685 988.399 86 1019.03 86H1028.07C1059.17 86 1066.59 91.5685 1073.55 133.564L1092.34 244.934C1093.04 249.343 1090.72 249.575 1087.7 249.575H1070.53C1067.52 249.575 1066.59 249.111 1065.89 244.934L1060.79 214.075H987.007L981.903 244.934C981.207 249.575 980.279 249.575 977.262 249.575ZM1000.46 134.028L990.488 192.962H1057.31L1047.33 134.028C1042.92 107.81 1037.36 107.578 1026.22 107.578H1020.88C1010.21 107.578 1004.87 107.81 1000.46 134.028Z" fill="url(#paint9_linear_4924_8060)"/>
<path d="M381.81 249.575H364.64C361.624 249.575 360 247.951 360 244.935V93.9497C360 89.5306 363.586 86.0012 368.005 86.0018C372.463 86.0025 375.737 86.0022 381.279 86.0017C387.381 86.0012 396.231 86.0004 412.437 86.0004H435.407C473.69 86.0004 488.075 103.866 488.075 133.565V244.935C488.075 247.951 486.451 249.575 483.435 249.575H466.266C463.249 249.575 461.625 247.951 461.625 244.935V134.029C461.625 116.395 451.648 109.899 433.551 109.899H414.293C414.118 109.899 413.97 109.905 413.744 109.916C412.685 109.964 409.905 110.09 394.549 109.972C390.099 109.938 386.45 113.531 386.45 117.981V244.935C386.45 247.951 384.826 249.575 381.81 249.575Z" fill="url(#paint10_linear_4924_8060)"/>
<defs>
<linearGradient id="paint0_linear_4924_8060" x1="184.817" y1="0" x2="184.817" y2="204.338" gradientUnits="userSpaceOnUse">
<stop stop-color="white"/>
<stop offset="1" stop-color="white" stop-opacity="0"/>
</linearGradient>
<linearGradient id="paint1_linear_4924_8060" x1="222.171" y1="66.9629" x2="222.171" y2="271.301" gradientUnits="userSpaceOnUse">
<stop stop-color="white"/>
<stop offset="1" stop-color="white" stop-opacity="0"/>
</linearGradient>
<linearGradient id="paint2_linear_4924_8060" x1="108.146" y1="21.5684" x2="108.146" y2="118.075" gradientUnits="userSpaceOnUse">
<stop stop-color="white"/>
<stop offset="1" stop-color="white" stop-opacity="0"/>
</linearGradient>
<linearGradient id="paint3_linear_4924_8060" x1="182.855" y1="217.925" x2="182.855" y2="314.432" gradientUnits="userSpaceOnUse">
<stop stop-color="white"/>
<stop offset="1" stop-color="white" stop-opacity="0"/>
</linearGradient>
<linearGradient id="paint4_linear_4924_8060" x1="68.8286" y1="64.6992" x2="68.8286" y2="269.037" gradientUnits="userSpaceOnUse">
<stop stop-color="white"/>
<stop offset="1" stop-color="white" stop-opacity="0"/>
</linearGradient>
<linearGradient id="paint5_linear_4924_8060" x1="106.183" y1="131.662" x2="106.183" y2="336" gradientUnits="userSpaceOnUse">
<stop stop-color="white"/>
<stop offset="1" stop-color="white" stop-opacity="0"/>
</linearGradient>
<linearGradient id="paint6_linear_4924_8060" x1="726.234" y1="86" x2="726.234" y2="304" gradientUnits="userSpaceOnUse">
<stop stop-color="white"/>
<stop offset="1" stop-color="white" stop-opacity="0"/>
</linearGradient>
<linearGradient id="paint7_linear_4924_8060" x1="726.234" y1="86" x2="726.234" y2="304" gradientUnits="userSpaceOnUse">
<stop stop-color="white"/>
<stop offset="1" stop-color="white" stop-opacity="0"/>
</linearGradient>
<linearGradient id="paint8_linear_4924_8060" x1="726.234" y1="86" x2="726.234" y2="304" gradientUnits="userSpaceOnUse">
<stop stop-color="white"/>
<stop offset="1" stop-color="white" stop-opacity="0"/>
</linearGradient>
<linearGradient id="paint9_linear_4924_8060" x1="726.234" y1="86" x2="726.234" y2="304" gradientUnits="userSpaceOnUse">
<stop stop-color="white"/>
<stop offset="1" stop-color="white" stop-opacity="0"/>
</linearGradient>
<linearGradient id="paint10_linear_4924_8060" x1="726.234" y1="86" x2="726.234" y2="304" gradientUnits="userSpaceOnUse">
<stop stop-color="white"/>
<stop offset="1" stop-color="white" stop-opacity="0"/>
</linearGradient>
</defs>
</svg>
